HIERARCHY
ROOT hip
{
	OFFSET 0.000000 0.000000 0.000000
	CHANNELS 6 Xposition Yposition Zposition Zrotation Yrotation Xrotation 
	JOINT lhipjoint
	{
		OFFSET 0.000000 0.000000 0.000000
		CHANNELS 3 Zrotation Yrotation Xrotation
		JOINT lfemur
		{
			OFFSET 1.363060 -1.794630 0.839290
			CHANNELS 3 Zrotation Yrotation Xrotation
			JOINT ltibia
			{
				OFFSET 2.448110 -6.726130 0.000000
				CHANNELS 3 Zrotation Yrotation Xrotation
				JOINT lfoot
				{
					OFFSET 2.562200 -7.039590 0.000000
					CHANNELS 3 Zrotation Yrotation Xrotation
					JOINT ltoes
					{
						OFFSET 0.157640 -0.433110 2.322550
						CHANNELS 3 Zrotation Yrotation Xrotation
						End Site
						{
							OFFSET 0.000000 0.000000 0.000000
						}
					}
				}
			}
		}
	}
	JOINT rhipjoint
	{
		OFFSET 0.000000 0.000000 0.000000
		CHANNELS 3 Zrotation Yrotation Xrotation
		JOINT rfemur
		{
			OFFSET -1.305520 -1.794630 0.839290
			CHANNELS 3 Zrotation Yrotation Xrotation
			JOINT rtibia
			{
				OFFSET -2.542530 -6.985550 0.000000
				CHANNELS 3 Zrotation Yrotation Xrotation
				JOINT rfoot
				{
					OFFSET -2.568260 -7.056230 0.000000
					CHANNELS 3 Zrotation Yrotation Xrotation
					JOINT rtoes
					{
						OFFSET -0.164730 -0.452590 2.363150
						CHANNELS 3 Zrotation Yrotation Xrotation
						End Site
						{
							OFFSET 0.000000 0.000000 0.000000
						}
					}
				}
			}
		}
	}
	JOINT lowerback
	{
		OFFSET 0.000000 0.000000 0.000000
		CHANNELS 3 Zrotation Yrotation Xrotation
		JOINT upperback
		{
			OFFSET 0.028270 2.035590 -0.193380
			CHANNELS 3 Zrotation Yrotation Xrotation
			JOINT thorax
			{
				OFFSET 0.056720 2.048850 -0.042750
				CHANNELS 3 Zrotation Yrotation Xrotation
				JOINT lowerneck
				{
					OFFSET 0.000000 0.000000 0.000000
					CHANNELS 3 Zrotation Yrotation Xrotation
					JOINT upperneck
					{
						OFFSET -0.054170 1.746240 0.172020
						CHANNELS 3 Zrotation Yrotation Xrotation
						JOINT head
						{
							OFFSET 0.104070 1.761360 -0.123970
							CHANNELS 3 Zrotation Yrotation Xrotation
							End Site
							{
								OFFSET 0.000000 0.000000 0.000000
							}
						}
					}
				}
				JOINT lclavicle
				{
					OFFSET 0.000000 0.000000 0.000000
					CHANNELS 3 Zrotation Yrotation Xrotation
					JOINT lhumerus
					{
						OFFSET 3.362410 1.200890 -0.311210
						CHANNELS 3 Zrotation Yrotation Xrotation
						JOINT lradius
						{
							OFFSET 4.983000 -0.000000 -0.000000
							CHANNELS 3 Zrotation Yrotation Xrotation
							JOINT lwrist
							{
								OFFSET 3.483560 -0.000000 -0.000000
								CHANNELS 3 Zrotation Yrotation Xrotation
								JOINT lhand
								{
									OFFSET 0.000000 0.000000 0.000000
									CHANNELS 3 Zrotation Yrotation Xrotation
									JOINT lfingers
									{
										OFFSET 0.715260 -0.000000 -0.000000
										CHANNELS 3 Zrotation Yrotation Xrotation
										End Site
										{
											OFFSET 0.000000 0.000000 0.000000
										}
									}
								}
								JOINT lthumb
								{
									OFFSET 0.000000 0.000000 0.000000
									CHANNELS 3 Zrotation Yrotation Xrotation
									End Site
									{
										OFFSET 0.000000 0.000000 0.000000
									}
								}
							}
						}
					}
				}
				JOINT rclavicle
				{
					OFFSET 0.000000 0.000000 0.000000
					CHANNELS 3 Zrotation Yrotation Xrotation
					JOINT rhumerus
					{
						OFFSET -3.136600 1.374050 -0.404650
						CHANNELS 3 Zrotation Yrotation Xrotation
						JOINT rradius
						{
							OFFSET -5.241900 -0.000000 -0.000000
							CHANNELS 3 Zrotation Yrotation Xrotation
							JOINT rwrist
							{
								OFFSET -3.444170 -0.000000 -0.000000
								CHANNELS 3 Zrotation Yrotation Xrotation
								JOINT rhand
								{
									OFFSET 0.000000 0.000000 0.000000
									CHANNELS 3 Zrotation Yrotation Xrotation
									JOINT rfingers
									{
										OFFSET -0.622530 -0.000000 -0.000000
										CHANNELS 3 Zrotation Yrotation Xrotation
										End Site
										{
											OFFSET 0.000000 0.000000 0.000000
										}
									}
								}
								JOINT rthumb
								{
									OFFSET 0.000000 0.000000 0.000000
									CHANNELS 3 Zrotation Yrotation Xrotation
									End Site
									{
										OFFSET 0.000000 0.000000 0.000000
									}
								}
							}
						}
					}
				}
			}
		}
	}
}
MOTION
Frames: 9
Frame Time: 0.008333
3.003483 19.431738 3.866426 -153.045346 -50.416975 147.655831 6.794674 -0.146887 -5.120674 -13.461500 -20.523717 12.206700 -0.873778 4.661430 15.613274 6.448294 -15.794992 33.588328 0.311700 3.589000 9.923200 -4.575378 -5.587049 6.148309 -2.946786 8.162771 -97.689684 -33.838859 -18.686547 132.051747 -5.982054 11.087865 35.218134 -0.966600 6.259700 -17.539900 -0.108211 0.731339 41.771028 0.800339 -4.972614 0.643424 -0.549225 -2.687896 9.074998 -3.324230 -10.180330 -15.955446 15.694025 -19.070132 3.795588 8.242100 -8.662300 6.265600 -6.330884 -0.578121 3.649148 -157.038568 -74.936989 120.078462 136.437066 -43.110756 -100.850031 -2.541616 4.869237 -6.935916 44.608730 -13.760834 -20.398900 -7.125000 0.000000 0.000000 11.287000 1.947500 -11.117000 1.562148 2.799693 4.532106 87.193349 -26.559074 27.066617 -23.226550 41.952843 -5.062095 -0.302645 -3.826623 14.145975 -10.917735 8.950446 -2.599600 7.125000 0.000000 0.000000 10.840100 -17.079500 7.311300 
3.023086 19.427758 3.873292 -152.618964 -50.662001 147.373187 6.781536 -0.193281 -5.095476 -13.482327 -21.219793 12.051823 -0.820621 4.828504 15.993370 6.391022 -15.460725 33.188190 0.309800 3.578100 9.892700 -4.459505 -5.572755 6.136131 -3.283910 7.781155 -98.476203 -33.809312 -18.696039 131.994063 -5.963060 11.105111 35.083414 -0.902100 6.053100 -16.938400 -0.020272 0.774961 42.251038 0.831626 -4.841584 0.655213 -0.350297 -2.716169 8.868848 -3.275733 -10.171200 -15.541782 15.877170 -19.111414 3.521597 8.377600 -8.712900 6.002600 -6.337382 -0.638591 3.550554 -159.256080 -74.862572 121.888419 136.436709 -43.105994 -100.989880 -2.587409 4.830171 -7.238253 44.895889 -13.448080 -20.327700 -7.125000 0.000000 0.000000 11.544000 2.223700 -11.322300 1.617620 2.804428 4.604360 87.131987 -26.612789 27.206484 -22.896853 41.621758 -4.941195 -0.276789 -3.798283 13.938712 -10.739195 8.715088 -2.506400 7.125000 0.000000 0.000000 10.968100 -17.359100 7.332400 
3.041296 19.420294 3.879163 -152.244845 -50.855433 147.130907 6.782130 -0.234918 -5.072128 -13.517580 -21.899717 11.872775 -0.760451 5.027518 16.459027 6.334676 -15.183578 32.759102 0.308500 3.570700 9.872000 -4.377058 -5.560377 6.117749 -3.532260 7.525026 -99.119745 -33.765996 -18.715745 131.884019 -5.940657 11.106726 34.921276 -0.863900 5.926800 -16.572100 0.074010 0.846935 42.669743 0.858471 -4.679251 0.671395 -0.177374 -2.720444 8.695507 -3.215439 -10.159814 -15.155350 16.061010 -19.159749 3.284007 8.507600 -8.765000 5.773500 -6.348375 -0.692319 3.453595 -161.445367 -74.736916 123.713742 136.395125 -43.129473 -101.066703 -2.623475 4.805009 -7.494197 45.064338 -13.179712 -20.214500 -7.125000 0.000000 0.000000 11.716000 2.488100 -11.441200 1.676615 2.805332 4.670387 87.075571 -26.672065 27.378315 -22.574493 41.301147 -4.809012 -0.246717 -3.756434 13.716793 -10.406466 8.503057 -2.382300 7.125000 0.000000 0.000000 11.203800 -17.639200 7.425900 
3.056720 19.408652 3.884437 -151.970669 -51.010323 146.974453 6.800667 -0.267271 -5.051264 -13.589070 -22.491915 11.625427 -0.693464 5.261136 17.013419 6.280806 -15.003530 32.257360 0.294300 3.488300 9.641400 -4.328380 -5.548397 6.093921 -3.710716 7.396234 -99.598792 -33.706311 -18.748489 131.704450 -5.913745 11.055566 34.778793 -0.809000 5.739900 -16.031600 0.125159 0.949869 43.046407 0.881031 -4.501398 0.690218 -0.016029 -2.719034 8.570070 -3.146296 -10.129732 -14.891976 16.234622 -19.186270 3.129262 8.605500 -8.796800 5.634100 -6.365528 -0.748833 3.326676 -163.841486 -74.601496 125.718872 136.257282 -43.227239 -101.041534 -2.647443 4.791246 -7.749281 45.106777 -12.940436 -20.037800 -7.125000 0.000000 0.000000 11.798600 2.766300 -11.464600 1.736821 2.804994 4.724993 87.012538 -26.675034 27.610219 -22.233779 40.973366 -4.663273 -0.214172 -3.704069 13.493221 -9.974263 8.306076 -2.240400 7.125000 0.000000 0.000000 11.509700 -17.920200 7.564400 
3.071149 19.394323 3.888716 -151.770354 -51.108997 146.838843 6.831789 -0.289924 -5.031505 -13.698035 -23.019288 11.398976 -0.620440 5.509267 17.614738 6.228338 -14.858578 31.743083 0.273900 3.366100 9.299600 -4.322926 -5.541889 6.070260 -3.797951 7.445454 -99.901450 -33.630990 -18.791653 131.461203 -5.878640 10.949700 34.619204 -0.758600 5.562600 -15.520600 0.158005 1.089116 43.429700 0.897506 -4.287716 0.702076 0.132469 -2.691602 8.398419 -3.078590 -10.100195 -14.597244 16.407531 -19.209902 3.008671 8.705200 -8.829100 5.519800 -6.380970 -0.816158 3.197270 -166.115325 -74.361234 127.598261 136.060016 -43.361537 -100.940782 -2.665757 4.797392 -8.033702 44.988613 -12.777115 -19.829700 -7.125000 0.000000 0.000000 11.760000 2.998300 -11.374600 1.787406 2.824261 4.776606 86.993029 -26.735065 27.822312 -21.898109 40.651534 -4.511734 -0.189033 -3.640280 13.437500 -9.476919 8.175017 -2.098700 7.125000 0.000000 0.000000 11.859700 -18.148800 7.743400 
3.083986 19.377804 3.892298 -151.613361 -51.185074 146.764915 6.868931 -0.308061 -5.010378 -13.776453 -23.476079 11.100935 -0.547006 5.768139 18.248122 6.189317 -14.801489 31.278847 0.268700 3.334500 9.211500 -4.335297 -5.537718 6.046320 -3.830055 7.572754 -100.121094 -33.545234 -18.843291 131.174796 -5.843676 10.815900 34.502336 -0.758400 5.561600 -15.517600 0.200701 1.224984 43.732764 0.907609 -4.082081 0.711203 0.235269 -2.647454 8.255918 -3.042281 -10.086909 -14.396336 16.566489 -19.258848 2.959508 8.788600 -8.863100 5.507100 -6.404827 -0.888055 3.058538 -168.279544 -74.092157 129.373993 135.830996 -43.526670 -100.791785 -2.677426 4.810639 -8.388232 44.743591 -12.661853 -19.576800 -7.125000 0.000000 0.000000 11.626400 3.220500 -11.191300 1.821086 2.852703 4.812075 87.009599 -26.791383 28.026981 -21.537377 40.337755 -4.351156 -0.175310 -3.565628 13.463581 -8.925233 8.153871 -1.964500 7.125000 0.000000 0.000000 12.249800 -18.278600 7.974100 
3.095131 19.361783 3.895483 -151.562876 -51.222073 146.779704 6.919035 -0.317817 -4.994941 -13.901261 -23.862494 10.805329 -0.471643 6.023376 18.870709 6.149413 -14.738735 30.799979 0.264900 3.311000 9.145800 -4.373575 -5.537384 6.018858 -3.847912 7.843275 -100.258025 -33.449595 -18.898173 130.845956 -5.796399 10.594890 34.390315 -0.848200 5.873900 -16.418900 0.218574 1.397032 43.957508 0.911688 -3.852659 0.727240 0.337494 -2.586082 8.170764 -3.081298 -10.086608 -14.250018 16.746940 -19.342562 2.902131 8.906000 -8.904700 5.541500 -6.447473 -0.947146 2.918830 -170.423217 -73.752358 131.161861 135.603344 -43.692557 -100.629220 -2.689305 4.829075 -8.868688 44.402680 -12.604181 -19.314100 -7.125000 0.000000 0.000000 11.413500 3.401600 -10.939000 1.853355 2.864241 4.841650 86.994974 -26.835163 28.314709 -21.217244 40.067754 -4.205268 -0.159680 -3.492850 13.496678 -8.391447 8.131256 -1.836900 7.125000 0.000000 0.000000 12.625900 -18.405400 8.194800 
3.105281 19.344867 3.898169 -151.512692 -51.225136 146.800770 6.968931 -0.323863 -4.979632 -13.987734 -24.211828 10.516800 -0.398671 6.263756 19.460878 6.115550 -14.685226 30.381952 0.263900 3.305000 9.128900 -4.428841 -5.539924 5.994326 -3.797488 8.183059 -100.312673 -33.348210 -18.958926 130.487208 -5.759223 10.353525 34.419167 -0.940800 6.177900 -17.301400 0.265006 1.559424 44.136163 0.912699 -3.627440 0.740254 0.411424 -2.511022 8.099021 -3.133419 -10.086860 -14.153725 16.909036 -19.420133 2.878357 9.011600 -8.938500 5.615500 -6.490430 -1.004853 2.792189 -172.252611 -73.408153 132.669892 135.425223 -43.829208 -100.503647 -2.701708 4.845783 -9.438234 44.035416 -12.609200 -19.087300 -7.125000 0.000000 0.000000 11.165200 3.514200 -10.667800 1.883656 2.886436 4.860696 87.027619 -26.959350 28.527227 -20.966506 39.862758 -4.080454 -0.162337 -3.411006 13.838188 -7.879990 8.259865 -1.737000 7.125000 0.000000 0.000000 12.980300 -18.388300 8.442100 
3.113242 19.329045 3.900458 -151.539310 -51.207844 146.897883 7.023950 -0.323252 -4.969098 -14.086542 -24.474116 10.225751 -0.331560 6.484763 20.001815 6.088102 -14.664499 29.996757 0.261100 3.287400 9.080000 -4.497893 -5.544340 5.966887 -3.746927 8.603721 -100.315143 -33.237417 -19.024095 130.100073 -5.731880 10.134662 34.513960 -1.015600 6.411800 -17.984000 0.306577 1.736007 44.234734 0.912022 -3.389146 0.759191 0.487492 -2.427214 8.078071 -3.228168 -10.125103 -14.079512 17.040744 -19.537303 2.842080 9.111800 -8.986000 5.691400 -6.538966 -1.045843 2.677461 -174.006418 -73.034450 134.118528 135.295510 -43.936841 -100.421496 -2.716114 4.861259 -10.033678 43.661325 -12.633506 -18.873300 -7.125000 0.000000 0.000000 10.907600 3.604700 -10.393500 1.911538 2.890113 4.876521 87.048079 -27.031590 28.722710 -20.669684 39.643606 -3.957367 -0.179714 -3.329390 14.259649 -7.475416 8.474390 -1.669100 7.125000 0.000000 0.000000 13.262200 -18.277800 8.669100 
